<svg xmlns="http://www.w3.org/2000/svg" width="1200" height="560" viewBox="0 0 1200 560">
<style>
.s{font-family:-apple-system,BlinkMacSystemFont,'Segoe UI','Noto Sans',Helvetica,Arial,sans-serif}
@keyframes fade{from{opacity:0;transform:translateY(6px)}to{opacity:1;transform:none}}
@keyframes pulse{0%,100%{opacity:.25}50%{opacity:.9}}
.fade{}
.pulse{animation:pulse 2.6s ease-in-out infinite}
</style>
<defs><marker id="ar" viewBox="0 0 10 10" refX="8" refY="5" markerWidth="6" markerHeight="6" orient="auto"><path d="M0 1L9 5L0 9z" fill="#8c959f"/></marker></defs>
<rect x="0.5" y="0.5" width="1199" height="559" rx="12" fill="#ffffff" stroke="#d0d7de"/>
<text x="40" y="62" class="s" font-size="12" fill="#1b7c83" text-anchor="start" font-weight="600" letter-spacing="1.2" >03  ·  RESEARCH · MACHINE LEARNING</text>
<rect x="304.48" y="43" width="178" height="28" rx="14" fill="#eff2f5" stroke="#d0d7de"/><circle cx="319.48" cy="57" r="4" fill="#1a7f37"/><circle cx="319.48" cy="57" r="8" fill="#1a7f37" class="pulse"/><text x="330.48" y="61.5" class="s" font-size="13" fill="#1f2328" text-anchor="start" font-weight="500" letter-spacing="0" >IEEE VTC manuscript</text>
<text x="40" y="114" class="s" font-size="36" fill="#1f2328" text-anchor="start" font-weight="700" letter-spacing="0" >UAV ISAC Scheduling</text>
<text x="40" y="146" class="s" font-size="17" fill="#59636e" text-anchor="start" font-weight="500" letter-spacing="0" >Learning an optimisation solver with a Conv3D-LSTM network</text>
<text x="40" y="188" class="s" font-size="15.5" fill="#1f2328" text-anchor="start" font-weight="400" letter-spacing="0" >Teaches a neural network to plan what a drone does at each</text>
<text x="40" y="211" class="s" font-size="15.5" fill="#1f2328" text-anchor="start" font-weight="400" letter-spacing="0" >stop as well as a slow MILP solver, in a single fast pass.</text>
<text x="40" y="276" class="s" font-size="26" fill="#1b7c83" text-anchor="start" font-weight="700" letter-spacing="0" >92.9%</text>
<text x="40" y="298" class="s" font-size="12.5" fill="#6e7781" text-anchor="start" font-weight="500" letter-spacing="0" >test accuracy</text>
<path d="M200 250V302" stroke="#d0d7de"/>
<text x="220" y="276" class="s" font-size="26" fill="#1b7c83" text-anchor="start" font-weight="700" letter-spacing="0" >75%</text>
<text x="220" y="298" class="s" font-size="12.5" fill="#6e7781" text-anchor="start" font-weight="500" letter-spacing="0" >joint recall (from 41%)</text>
<path d="M380 250V302" stroke="#d0d7de"/>
<text x="400" y="276" class="s" font-size="26" fill="#1b7c83" text-anchor="start" font-weight="700" letter-spacing="0" >1M+</text>
<text x="400" y="298" class="s" font-size="12.5" fill="#6e7781" text-anchor="start" font-weight="500" letter-spacing="0" >training rows</text>
<rect x="600" y="32" width="568" height="300" rx="10" fill="#f6f8fa" stroke="#d0d7de"/>
<text x="620" y="58" class="s" font-size="11" fill="#6e7781" text-anchor="start" font-weight="600" letter-spacing="1.2" >15-WAYPOINT TRAJECTORY  ·  MODE PER WAYPOINT</text>
<path d="M640 168 L675 140 L710 118 L745 108 L780 112 L815 130 L850 156 L885 178 L920 190 L955 188 L990 172 L1025 148 L1060 124 L1095 106 L1130 98" fill="none" stroke="#8c959f" stroke-width="1.5"/><line x1="640" y1="168" x2="640" y2="208" stroke="#0969da" stroke-opacity=".3" stroke-dasharray="2 3"/><circle cx="640" cy="168" r="6" fill="#f6f8fa" stroke="#0969da" stroke-width="2.2"/><line x1="675" y1="140" x2="675" y2="208" stroke="#0969da" stroke-opacity=".3" stroke-dasharray="2 3"/><circle cx="675" cy="140" r="6" fill="#f6f8fa" stroke="#0969da" stroke-width="2.2"/><line x1="710" y1="118" x2="710" y2="208" stroke="#8250df" stroke-opacity=".3" stroke-dasharray="2 3"/><circle cx="710" cy="118" r="6" fill="#f6f8fa" stroke="#8250df" stroke-width="2.2"/><line x1="745" y1="108" x2="745" y2="208" stroke="#1a7f37" stroke-opacity=".3" stroke-dasharray="2 3"/><circle cx="745" cy="108" r="6" fill="#f6f8fa" stroke="#1a7f37" stroke-width="2.2"/><line x1="780" y1="112" x2="780" y2="208" stroke="#8250df" stroke-opacity=".3" stroke-dasharray="2 3"/><circle cx="780" cy="112" r="6" fill="#f6f8fa" stroke="#8250df" stroke-width="2.2"/><line x1="815" y1="130" x2="815" y2="208" stroke="#0969da" stroke-opacity=".3" stroke-dasharray="2 3"/><circle cx="815" cy="130" r="6" fill="#f6f8fa" stroke="#0969da" stroke-width="2.2"/><line x1="850" y1="156" x2="850" y2="208" stroke="#1a7f37" stroke-opacity=".3" stroke-dasharray="2 3"/><circle cx="850" cy="156" r="6" fill="#f6f8fa" stroke="#1a7f37" stroke-width="2.2"/><line x1="885" y1="178" x2="885" y2="208" stroke="#1a7f37" stroke-opacity=".3" stroke-dasharray="2 3"/><circle cx="885" cy="178" r="6" fill="#f6f8fa" stroke="#1a7f37" stroke-width="2.2"/><line x1="920" y1="190" x2="920" y2="208" stroke="#8250df" stroke-opacity=".3" stroke-dasharray="2 3"/><circle cx="920" cy="190" r="6" fill="#f6f8fa" stroke="#8250df" stroke-width="2.2"/><line x1="955" y1="188" x2="955" y2="208" stroke="#0969da" stroke-opacity=".3" stroke-dasharray="2 3"/><circle cx="955" cy="188" r="6" fill="#f6f8fa" stroke="#0969da" stroke-width="2.2"/><line x1="990" y1="172" x2="990" y2="208" stroke="#8250df" stroke-opacity=".3" stroke-dasharray="2 3"/><circle cx="990" cy="172" r="6" fill="#f6f8fa" stroke="#8250df" stroke-width="2.2"/><line x1="1025" y1="148" x2="1025" y2="208" stroke="#1a7f37" stroke-opacity=".3" stroke-dasharray="2 3"/><circle cx="1025" cy="148" r="6" fill="#f6f8fa" stroke="#1a7f37" stroke-width="2.2"/><line x1="1060" y1="124" x2="1060" y2="208" stroke="#0969da" stroke-opacity=".3" stroke-dasharray="2 3"/><circle cx="1060" cy="124" r="6" fill="#f6f8fa" stroke="#0969da" stroke-width="2.2"/><line x1="1095" y1="106" x2="1095" y2="208" stroke="#8250df" stroke-opacity=".3" stroke-dasharray="2 3"/><circle cx="1095" cy="106" r="6" fill="#f6f8fa" stroke="#8250df" stroke-width="2.2"/><line x1="1130" y1="98" x2="1130" y2="208" stroke="#1a7f37" stroke-opacity=".3" stroke-dasharray="2 3"/><circle cx="1130" cy="98" r="6" fill="#f6f8fa" stroke="#1a7f37" stroke-width="2.2"/><path d="M626 208H1150" stroke="#d0d7de"/><circle r="4.5" fill="#1f2328"><animateMotion dur="9s" repeatCount="indefinite" path="M640 168 L675 140 L710 118 L745 108 L780 112 L815 130 L850 156 L885 178 L920 190 L955 188 L990 172 L1025 148 L1060 124 L1095 106 L1130 98"/></circle><circle cx="629" cy="228" r="4.5" fill="#f6f8fa" stroke="#0969da" stroke-width="2"/><text x="639" y="232" class="s" font-size="12" fill="#59636e" text-anchor="start" font-weight="500" letter-spacing="0" >Sense</text><circle cx="696.6" cy="228" r="4.5" fill="#f6f8fa" stroke="#8250df" stroke-width="2"/><text x="706.6" y="232" class="s" font-size="12" fill="#59636e" text-anchor="start" font-weight="500" letter-spacing="0" >Communicate</text><circle cx="804.52" cy="228" r="4.5" fill="#f6f8fa" stroke="#1a7f37" stroke-width="2"/><text x="814.52" y="232" class="s" font-size="12" fill="#59636e" text-anchor="start" font-weight="500" letter-spacing="0" >Joint ISAC</text><text x="624" y="263" class="s" font-size="12" fill="#59636e" text-anchor="start" font-weight="500" letter-spacing="0" >CNN accuracy</text><rect x="730" y="254" width="325" height="9" rx="4.5" fill="#eff2f5"/><rect x="730" y="254" width="280" height="9" rx="4.5" fill="#8c959f"><animate attributeName="width" from="0" to="280" begin="0.30s" dur="1.2s" fill="freeze" calcMode="spline" keySplines=".2 .7 .2 1" keyTimes="0;1"/></rect><text x="1150" y="263" class="s" font-size="12" fill="#1f2328" text-anchor="end" font-weight="600" letter-spacing="0" >86.5%</text><text x="624" y="289" class="s" font-size="12" fill="#59636e" text-anchor="start" font-weight="500" letter-spacing="0" >Our accuracy</text><rect x="730" y="280" width="325" height="9" rx="4.5" fill="#eff2f5"/><rect x="730" y="280" width="301" height="9" rx="4.5" fill="#1b7c83"><animate attributeName="width" from="0" to="301" begin="0.55s" dur="1.2s" fill="freeze" calcMode="spline" keySplines=".2 .7 .2 1" keyTimes="0;1"/></rect><text x="1150" y="289" class="s" font-size="12" fill="#1f2328" text-anchor="end" font-weight="600" letter-spacing="0" >92.9%</text><text x="624" y="315" class="s" font-size="12" fill="#59636e" text-anchor="start" font-weight="500" letter-spacing="0" >Joint recall</text><rect x="730" y="306" width="325" height="9" rx="4.5" fill="#eff2f5"/><rect x="730" y="306" width="244" height="9" rx="4.5" fill="#8250df"><animate attributeName="width" from="0" to="244" begin="0.80s" dur="1.2s" fill="freeze" calcMode="spline" keySplines=".2 .7 .2 1" keyTimes="0;1"/></rect><text x="1150" y="315" class="s" font-size="12" fill="#1f2328" text-anchor="end" font-weight="600" letter-spacing="0" >41% → 75%</text><rect x="863" y="303" width="2" height="15" fill="#1f2328" opacity=".7"/>
<path d="M40 362H1160" stroke="#d0d7de"/>
<rect x="40" y="390" width="8" height="8" rx="2" fill="#1b7c83"/>
<text x="58" y="398" class="s" font-size="14" fill="#1f2328" text-anchor="start" font-weight="600" letter-spacing="0" >Dataset generation</text>
<text x="58" y="420" class="s" font-size="14" fill="#59636e" text-anchor="start" font-weight="400" letter-spacing="0" >Extended a MATLAB MILP into a generator of 66K+ trajectories</text>
<rect x="620" y="390" width="8" height="8" rx="2" fill="#1b7c83"/>
<text x="638" y="398" class="s" font-size="14" fill="#1f2328" text-anchor="start" font-weight="600" letter-spacing="0" >Model design</text>
<text x="638" y="420" class="s" font-size="14" fill="#59636e" text-anchor="start" font-weight="400" letter-spacing="0" >3-branch Conv3D-LSTM sequence classifier in TensorFlow</text>
<rect x="40" y="448" width="8" height="8" rx="2" fill="#1b7c83"/>
<text x="58" y="456" class="s" font-size="14" fill="#1f2328" text-anchor="start" font-weight="600" letter-spacing="0" >Physically faithful</text>
<text x="58" y="478" class="s" font-size="14" fill="#59636e" text-anchor="start" font-weight="400" letter-spacing="0" >Cramér–Rao bound and comms CDFs closely track the MILP</text>
<rect x="620" y="448" width="8" height="8" rx="2" fill="#1b7c83"/>
<text x="638" y="456" class="s" font-size="14" fill="#1f2328" text-anchor="start" font-weight="600" letter-spacing="0" >Rigorous evaluation</text>
<text x="638" y="478" class="s" font-size="14" fill="#59636e" text-anchor="start" font-weight="400" letter-spacing="0" >60,690 unseen test trajectories vs a CNN baseline</text>
<path d="M40 498H1160" stroke="#d0d7de"/>
<text x="40" y="530" class="s" font-size="12.5" fill="#6e7781" text-anchor="start" font-weight="500" letter-spacing="0.3" >Python  ·  TensorFlow / Keras  ·  MATLAB (intlinprog)  ·  NumPy  ·  pandas  ·  Numba</text>
</svg>
